Simulation
nRows=15
nColumns=15
endheader
time  TH_x TH_y TH_z SC_y  SC_z  SC_x  AC_y  AC_z  AC_x  GH_y  GH_z  GH_yy  EL_x  PS_y
0.0  0.000000  0.000000  0.000000  -28.480276145115127  2.325454741507831  3.3786133948416395  48.50989723047892  7.292532003371919  2.8443277749105254  175.19723847921333  4.045349906312991  -136.1552263946203  20.77511780268799  120.000000
0.040972222222222215  0.000000  0.000000  0.000000  -27.90598080901956  2.836978410188969  3.21138339339307  48.135612781930305  7.479831470783876  3.095720777358029  169.15977048422602  3.2717258036201904  -130.59511567510228  20.747988423908755  120.000000
0.08194444444444443  0.000000  0.000000  0.000000  -27.405935489510984  3.1869038386803368  2.9759333804577697  47.81763587899995  7.514438784817893  3.3239424791535965  159.70055283930387  2.6304011277207366  -121.5888106107872  20.64065210590845  120.000000
0.12291666666666665  0.000000  0.000000  0.000000  -26.998945583367863  3.418625488136018  2.674591524698486  47.565930824652426  7.434585440814234  3.5488107522196937  144.96498950311198  2.1389460613151448  -107.30088067373725  20.389250361141173  120.000000
0.16388888888888886  0.000000  0.000000  0.000000  -26.68843073600442  3.5583493185720116  2.308641509590316  47.37729189986543  7.292575055096173  3.787566131565754  123.54010494567395  1.856421285546661  -86.36912950213241  19.96785514409411  120.000000
0.20486111111111108  0.000000  0.000000  0.000000  -26.46260344371465  3.6401293664683876  1.8822835170289582  47.24672316418959  7.149849215421093  4.062767858978775  97.73831830204921  1.8727478056111546  -61.16938505496791  19.38833785982259  120.000000
0.2458333333333333  0.000000  0.000000  0.000000  -26.308499810114416  3.695979555800074  1.4100520470632518  47.165823985472755  7.0617895105928925  4.38968518173729  74.32304676621274  2.2270448877002065  -38.537549199801944  18.696122671971345  120.000000
0.28680555555555554  0.000000  0.000000  0.000000  -26.218414127875523  3.748885880591098  0.9133961648976932  47.13331438614325  7.072211774206496  4.771102185551453  57.08761119346176  2.8774529771192503  -22.340963595559728  17.949043769297134  120.000000
0.3277777777777777  0.000000  0.000000  0.000000  -26.19128024385749  3.8129200664664538  0.41559730160527286  47.143197136253676  7.212213328116604  5.202694734702765  45.268554102800465  3.7687326258049225  -11.88524085406902  17.21475359039508  120.000000
0.3687499999999999  0.000000  0.000000  0.000000  -26.236334271247166  3.8942706753049228  -0.06168955920875525  47.189788050588014  7.500288164300276  5.672420302064195  37.12395316883744  4.868945803559892  -5.482494912904559  16.56575970748214  120.000000
0.40972222222222215  0.000000  0.000000  0.000000  -26.37024525615006  3.9938355558327063  -0.5003816284456142  47.26367525866624  7.943301821788578  6.164753088078698  31.36329770366282  6.157857116632423  -1.8727927900203218  16.073114458486504  120.000000
0.4506944444444444  0.000000  0.000000  0.000000  -26.612050927254703  4.109072189929676  -0.8865019762112156  47.355649903058776  8.537864998576525  6.664448517243208  27.150279580361847  7.615640212311781  -0.21321108364205127  15.790711307819498  120.000000
0.4916666666666666  0.000000  0.000000  0.000000  -26.976914709580246  4.2340120708571085  -1.2081950960625747  47.464562584281516  9.275492132606981  7.159006013140656  23.947577777202593  9.216510241410122  0.09052883327910144  15.735121911780126  120.000000
0.5326388888888888  0.000000  0.000000  0.000000  -27.467793524184312  4.361054981763522  -1.4545356563086005  47.594743649752  10.142200617359068  7.644192650080309  21.394135071256365  10.927464161914228  -0.49134383087272915  15.871916760529091  120.000000
0.5736111111111111  0.000000  0.000000  0.000000  -28.073284206736776  4.484362938379539  -1.6163118342893121  47.756160418483326  11.121698966894222  8.120221707398992  19.26966982081136  12.711802019233533  -1.5955731888941433  16.123126272065125  120.000000
